<?xml version="1.0" encoding="UTF-8"?>
<svg version="1.1" xmlns="http://www.w3.org/2000/svg" width="512" height="512">
<path d="M0 0 C1.24 -0.01 1.24 -0.01 2.51 -0.01 C4.26 -0.01 6.01 -0.01 7.75 0.01 C10.43 0.03 13.1 0.01 15.77 -0.02 C17.47 -0.01 19.17 -0.01 20.88 0 C22.07 -0.01 22.07 -0.01 23.29 -0.02 C26.73 0.03 28.98 0.21 31.83 2.2 C33.65 4.84 34.67 7.24 35.69 10.29 C36.07 11.39 36.45 12.49 36.84 13.62 C37.22 14.77 37.61 15.91 38 17.09 C38.76 19.37 39.54 21.64 40.32 23.91 C40.65 24.92 40.99 25.92 41.33 26.96 C42.44 29.53 43.25 30.84 45.44 32.53 C48.14 33.52 50.81 34.39 53.56 35.22 C63.55 38.36 73.6 42.31 82.54 47.83 C85.56 48.95 87.33 48.4 90.44 47.53 C94.7 45.56 98.81 43.3 102.92 41.04 C108.4 38.16 112.25 36.34 118.44 37.53 C121.47 39.51 123.9 41.96 126.44 44.53 C127.92 45.91 129.41 47.28 130.9 48.65 C132.4 50.09 133.89 51.53 135.38 52.97 C136.14 53.68 136.91 54.39 137.7 55.13 C143.82 61.1 143.82 61.1 144.68 65.56 C144.38 70.41 143.04 73.48 140.69 77.66 C140.33 78.33 139.97 79.01 139.59 79.71 C138 82.68 136.38 85.64 134.73 88.59 C133.27 91.92 132.8 94.92 132.44 98.53 C131.4 98.48 130.36 98.44 129.29 98.39 C119.75 98.09 111.36 98.2 103.81 104.84 C101.44 106.53 101.44 106.53 97.81 106.28 C97.13 106.16 96.44 106.04 95.73 105.91 C86.05 104.31 77.35 105.81 69 111.06 C65.13 113.77 65.13 113.77 62.44 117.53 C59.32 116.1 56.52 114.31 53.67 112.41 C36.45 100.98 17.98 95.66 -2.7 99.15 C-20.31 102.74 -36.78 112.19 -47.65 126.62 C-59.62 144.88 -64.95 165.28 -60.48 186.92 C-57.4 199.7 -51.36 210.77 -42.56 220.53 C-41.73 221.48 -41.73 221.48 -40.89 222.45 C-29.42 234.82 -11.29 242.49 5.44 243.53 C6.23 243.58 7.03 243.64 7.85 243.69 C24.19 244.25 39.92 239.07 53.29 229.89 C55.44 228.53 55.44 228.53 57.44 228.53 C61.32 236.21 65.18 243.89 68.88 251.66 C69.35 252.65 69.82 253.64 70.31 254.66 C72.51 260.26 72.58 265.83 72.54 271.77 C72.53 272.93 72.53 272.93 72.53 274.1 C72.53 276.54 72.51 278.97 72.5 281.41 C72.49 283.07 72.49 284.72 72.49 286.38 C72.48 290.43 72.46 294.48 72.44 298.53 C65.32 302.32 58.35 305.03 50.61 307.2 C49.85 307.44 49.1 307.67 48.32 307.91 C47.3 308.2 47.3 308.2 46.27 308.49 C42.16 310.82 40.92 315.63 39.57 319.91 C39.08 321.42 39.08 321.42 38.57 322.95 C37.9 325.05 37.23 327.15 36.57 329.25 C36.24 330.25 35.91 331.25 35.57 332.29 C35.28 333.2 34.99 334.11 34.69 335.05 C33.05 338.3 31.58 339.67 28.44 341.53 C25.57 341.92 23.11 342.09 20.25 342.06 C19.47 342.07 18.69 342.07 17.89 342.07 C16.24 342.08 14.6 342.07 12.95 342.05 C10.44 342.03 7.94 342.05 5.43 342.08 C3.83 342.08 2.23 342.07 0.63 342.06 C-0.12 342.07 -0.87 342.08 -1.64 342.09 C-5.13 342.02 -7.39 341.63 -10.43 339.87 C-12.9 337.16 -13.8 335.05 -14.88 331.56 C-15.25 330.41 -15.62 329.27 -16.01 328.08 C-16.38 326.89 -16.74 325.7 -17.12 324.47 C-17.86 322.1 -18.61 319.73 -19.38 317.37 C-19.7 316.32 -20.03 315.27 -20.36 314.2 C-21.71 311.21 -22.76 310.16 -25.56 308.53 C-28.31 307.57 -31.03 306.68 -33.81 305.84 C-42.91 302.97 -51.16 299.02 -59.56 294.53 C-62.37 293.13 -64.45 293.32 -67.56 293.53 C-70.2 294.5 -70.2 294.5 -72.71 295.94 C-73.66 296.43 -74.6 296.93 -75.57 297.44 C-77.52 298.5 -79.47 299.56 -81.42 300.62 C-91.24 305.79 -91.24 305.79 -96.56 304.53 C-99.55 302.51 -102.02 300.07 -104.56 297.53 C-105.7 296.46 -105.7 296.46 -106.87 295.36 C-109.27 293.09 -111.64 290.79 -114 288.47 C-114.81 287.69 -115.63 286.92 -116.47 286.12 C-117.24 285.35 -118.01 284.59 -118.81 283.81 C-119.51 283.13 -120.2 282.45 -120.92 281.75 C-123.02 278.91 -123.44 277.06 -123.56 273.53 C-122.56 270.54 -122.56 270.54 -121 267.43 C-120.18 265.74 -120.18 265.74 -119.34 264.01 C-118.75 262.84 -118.17 261.67 -117.56 260.47 C-116.4 258.15 -115.26 255.83 -114.12 253.5 C-113.61 252.47 -113.1 251.45 -112.57 250.39 C-111.16 246.37 -111.89 244.11 -113.51 240.29 C-113.9 239.54 -114.28 238.79 -114.67 238.01 C-115.09 237.16 -115.52 236.31 -115.95 235.44 C-116.4 234.54 -116.85 233.64 -117.31 232.72 C-121.2 224.81 -124.24 217.09 -126.53 208.59 C-127.59 205.45 -128.06 204.53 -130.56 202.53 C-133.3 201.36 -133.3 201.36 -136.44 200.41 C-137.59 200.03 -138.74 199.65 -139.92 199.26 C-142.35 198.48 -144.77 197.71 -147.2 196.94 C-148.35 196.56 -149.5 196.18 -150.69 195.79 C-152.27 195.28 -152.27 195.28 -153.88 194.76 C-156.99 193.33 -158.07 192.61 -159.56 189.53 C-159.87 186.6 -160.01 183.9 -160 180.97 C-160 180.14 -160.01 179.31 -160.01 178.46 C-160.02 176.71 -160.02 174.96 -160.01 173.21 C-160 170.54 -160.03 167.87 -160.06 165.2 C-160.06 163.49 -160.06 161.79 -160.06 160.09 C-160.07 159.3 -160.08 158.5 -160.09 157.68 C-160.05 154.24 -159.88 151.99 -157.9 149.12 C-155.18 147.27 -152.79 146.39 -149.62 145.49 C-148.48 145.14 -147.34 144.78 -146.16 144.42 C-143.77 143.7 -141.37 143.01 -138.96 142.33 C-132.75 140.54 -132.75 140.54 -127.96 136.49 C-126.92 134.19 -126.2 131.97 -125.56 129.53 C-125.1 128.27 -124.63 127.01 -124.14 125.75 C-123.7 124.52 -123.26 123.3 -122.81 122.03 C-120.34 115.18 -117.37 108.67 -114.01 102.2 C-111.96 98.08 -111.3 95.94 -112.56 91.53 C-113.35 89.74 -114.21 87.97 -115.1 86.22 C-115.6 85.23 -116.1 84.23 -116.61 83.21 C-117.66 81.13 -118.72 79.06 -119.79 76.99 C-120.53 75.5 -120.53 75.5 -121.29 73.97 C-121.75 73.07 -122.21 72.17 -122.68 71.24 C-123.78 67.87 -123.54 65.92 -122.56 62.53 C-121.23 60.49 -121.23 60.49 -119.52 58.68 C-118.89 58.01 -118.26 57.33 -117.61 56.63 C-116.93 55.94 -116.26 55.25 -115.56 54.53 C-114.89 53.83 -114.22 53.13 -113.52 52.41 C-111.45 50.29 -109.35 48.19 -107.25 46.09 C-106.54 45.38 -105.82 44.66 -105.08 43.92 C-104.4 43.23 -103.72 42.55 -103.01 41.85 C-102.4 41.23 -101.78 40.62 -101.15 39.99 C-98.02 37.11 -95.19 37.14 -91.1 37.19 C-86.51 37.81 -82.87 40.14 -78.94 42.47 C-71.26 47.09 -71.26 47.09 -62.56 48.53 C-59.87 47.46 -57.61 46.39 -55.12 44.97 C-46.52 40.36 -37.67 36.85 -28.39 33.82 C-24.34 32.59 -24.34 32.59 -21.33 29.8 C-19.86 26.78 -18.91 23.61 -17.88 20.42 C-17.37 18.83 -16.86 17.25 -16.35 15.66 C-15.83 14.06 -15.33 12.44 -14.84 10.83 C-14.61 10.07 -14.37 9.32 -14.12 8.54 C-13.82 7.53 -13.82 7.53 -13.5 6.49 C-10.51 0.24 -6.43 -0.07 0 0 Z " fill="#000000" transform="translate(159.5625,85.46875)"/>
<path d="M0 0 C1.04 0.28 2.08 0.56 3.15 0.85 C5.33 1.44 7.51 2.03 9.69 2.63 C13.02 3.55 16.35 4.44 19.68 5.32 C21.81 5.9 23.94 6.48 26.06 7.06 C27.05 7.33 28.04 7.59 29.06 7.86 C35.94 9.78 40.82 11.59 45.21 17.48 C49.06 25.04 46.31 33.58 44.2 41.29 C43.79 42.83 43.79 42.83 43.37 44.4 C42.79 46.56 42.2 48.72 41.61 50.88 C40.71 54.15 39.85 57.43 38.98 60.71 C38.41 62.82 37.84 64.93 37.26 67.04 C37.01 68 36.75 68.97 36.49 69.96 C34.05 78.74 30.01 86.31 24.77 93.73 C18.82 102.43 15.73 111.64 15.67 122.12 C15.67 122.78 15.66 123.45 15.66 124.14 C15.65 125.57 15.64 127.01 15.63 128.45 C15.62 130.73 15.6 133.01 15.58 135.29 C15.52 141.76 15.46 148.24 15.43 154.71 C15.41 158.68 15.37 162.65 15.33 166.62 C15.32 168.13 15.31 169.63 15.3 171.14 C15.3 173.25 15.28 175.36 15.25 177.47 C15.24 178.67 15.23 179.87 15.22 181.11 C14.79 184.6 13.93 186.5 11.83 189.3 C8.56 190.93 4.93 190.46 1.33 190.47 C0.01 190.48 0.01 190.48 -1.34 190.49 C-4.25 190.51 -7.17 190.53 -10.09 190.54 C-11.59 190.54 -11.59 190.54 -13.11 190.55 C-18.38 190.57 -23.65 190.58 -28.92 190.59 C-34.37 190.6 -39.82 190.64 -45.27 190.68 C-49.45 190.7 -53.64 190.71 -57.82 190.72 C-59.83 190.72 -61.84 190.73 -63.85 190.75 C-66.66 190.77 -69.47 190.77 -72.28 190.77 C-73.52 190.79 -73.52 190.79 -74.79 190.81 C-78.6 190.77 -80.78 190.51 -84.19 188.68 C-86.8 185.53 -86.78 183.74 -86.76 179.67 C-86.77 178.68 -86.77 178.68 -86.78 177.68 C-86.78 176.25 -86.78 174.83 -86.76 173.4 C-86.73 171.13 -86.74 168.85 -86.75 166.58 C-86.77 161.74 -86.75 156.89 -86.73 152.05 C-86.71 146.47 -86.71 140.89 -86.73 135.31 C-86.73 133.1 -86.71 130.89 -86.69 128.68 C-86.66 113.92 -89.97 101.11 -97.29 88.17 C-103.97 76.07 -106.35 66.7 -106.23 52.86 C-106.23 51.84 -106.22 50.82 -106.22 49.78 C-106.21 47.28 -106.19 44.79 -106.17 42.3 C-105.5 42.51 -104.83 42.72 -104.14 42.94 C-103.25 43.21 -102.37 43.49 -101.45 43.77 C-100.14 44.18 -100.14 44.18 -98.8 44.6 C-91.96 46.41 -86.48 45.61 -80.17 42.5 C-77.36 40.81 -75.32 38.76 -73.17 36.3 C-71.83 34.96 -70.5 33.63 -69.17 32.3 C-67.48 33.31 -65.78 34.32 -64.09 35.32 C-58.5 38.15 -51.64 38.31 -45.69 36.58 C-40.87 34.58 -37.56 32.24 -34.17 28.3 C-31.65 29.54 -29.19 30.83 -26.73 32.19 C-21.14 34.98 -15.18 36.44 -9.17 38.05 C-8.01 38.36 -6.86 38.68 -5.66 39 C-2.83 39.78 0 40.54 2.83 41.3 C2.54 43.02 2.24 44.75 1.93 46.47 C1.77 47.43 1.6 48.39 1.43 49.38 C0.59 53.49 -0.72 57.37 -2.17 61.3 C-2.92 61.39 -3.67 61.49 -4.44 61.59 C-16.74 63.39 -27.29 67.03 -35.36 76.92 C-41.02 84.95 -45.27 95.36 -44.17 105.3 C-41.97 107.43 -41.97 107.43 -39.17 108.3 C-38.18 107.97 -37.19 107.64 -36.17 107.3 C-35.41 104.76 -34.82 102.32 -34.29 99.73 C-31.93 89.41 -28.06 82.47 -19.17 76.3 C-12.61 72.59 -6.41 71.82 1.05 71.67 C3.76 71.53 3.76 71.53 5.38 70.21 C7.47 67.45 8.04 64.71 8.91 61.36 C9.09 60.69 9.26 60.01 9.44 59.32 C9.81 57.9 10.17 56.47 10.53 55.05 C11.08 52.87 11.65 50.69 12.22 48.52 C12.58 47.14 12.93 45.75 13.29 44.36 C13.61 43.1 13.93 41.85 14.26 40.55 C14.78 37.59 14.89 36.05 13.83 33.3 C12.46 32.97 12.46 32.97 11.07 32.63 C7.5 31.76 3.94 30.86 0.38 29.95 C-1.38 29.5 -3.14 29.05 -4.91 28.62 C-7.73 27.91 -10.54 27.17 -13.36 26.42 C-14.25 26.2 -15.15 25.98 -16.07 25.76 C-22 24.14 -24.75 22.44 -28.17 17.3 C-29.91 13.82 -29.63 10.1 -29.17 6.3 C-22.88 -6.28 -11.36 -3.13 0 0 Z " fill="#000000" transform="translate(335.16796875,236.703125)"/>
<path d="M0 0 C2.27 1.69 4.07 3.23 6.03 5.22 C6.86 6.03 6.86 6.03 7.71 6.87 C9.54 8.66 11.35 10.47 13.15 12.29 C14.42 13.54 15.69 14.8 16.96 16.06 C19.61 18.69 22.25 21.34 24.88 23.99 C28.25 27.38 31.65 30.75 35.07 34.1 C37.69 36.69 40.3 39.29 42.9 41.91 C44.15 43.15 45.4 44.39 46.66 45.63 C48.42 47.36 50.15 49.11 51.88 50.88 C52.4 51.38 52.92 51.88 53.46 52.4 C56.22 55.27 57.32 57.35 57.38 61.26 C57 65 57 65 55.99 66.97 C52.83 68.6 49.62 68.42 46.16 68.41 C45.39 68.42 44.63 68.43 43.84 68.44 C40.56 68.48 37.29 68.5 34.02 68.51 C31.62 68.53 29.23 68.56 26.84 68.59 C26.1 68.59 25.36 68.59 24.6 68.58 C20.75 68.6 20.75 68.6 17.3 70.1 C15.34 72.96 15.63 75.3 15.63 78.74 C15.63 79.43 15.63 80.12 15.63 80.83 C15.62 83.15 15.63 85.46 15.65 87.77 C15.65 89.43 15.64 91.09 15.64 92.75 C15.64 96.32 15.64 99.89 15.65 103.46 C15.67 109.11 15.66 114.76 15.65 120.4 C15.62 135.45 15.62 150.49 15.64 165.54 C15.65 175.42 15.65 185.3 15.62 195.18 C15.6 200.8 15.61 206.41 15.63 212.03 C15.64 215.52 15.63 219.01 15.62 222.51 C15.61 224.13 15.62 225.75 15.63 227.37 C15.65 229.58 15.64 231.79 15.62 234 C15.62 235.24 15.62 236.48 15.62 237.75 C14.82 241.92 13.29 243.41 10 246 C6.74 246.63 6.74 246.63 3.09 246.63 C1.11 246.63 1.11 246.63 -0.91 246.63 C-1.93 246.62 -1.93 246.62 -2.97 246.6 C-5.06 246.56 -7.14 246.58 -9.23 246.6 C-19.3 246.52 -19.3 246.52 -22.16 244.4 C-24.63 241.18 -24.5 239.17 -24.49 235.13 C-24.5 234.09 -24.5 234.09 -24.51 233.04 C-24.52 230.72 -24.5 228.41 -24.48 226.1 C-24.48 224.44 -24.49 222.78 -24.49 221.12 C-24.5 217.55 -24.5 213.97 -24.49 210.4 C-24.47 204.75 -24.48 199.11 -24.49 193.46 C-24.52 180.45 -24.51 167.45 -24.5 154.44 C-24.49 142.52 -24.49 130.6 -24.52 118.68 C-24.53 113.06 -24.52 107.45 -24.5 101.83 C-24.49 98.34 -24.5 94.85 -24.51 91.36 C-24.52 89.74 -24.51 88.12 -24.5 86.5 C-24.48 84.29 -24.49 82.08 -24.51 79.87 C-24.51 78.63 -24.5 77.4 -24.5 76.12 C-25.1 72.4 -25.98 71.21 -29 69 C-31.7 68.63 -34 68.49 -36.69 68.53 C-37.43 68.52 -38.17 68.52 -38.93 68.51 C-41.29 68.49 -43.64 68.49 -46 68.5 C-49.1 68.51 -52.21 68.5 -55.31 68.47 C-56.02 68.48 -56.73 68.49 -57.47 68.5 C-60.73 68.47 -62.76 68.15 -65.54 66.41 C-67 64 -67 64 -66.92 60.73 C-65.83 56.31 -63.87 54.05 -60.69 50.99 C-59.86 50.16 -59.86 50.16 -59.01 49.31 C-57.19 47.48 -55.35 45.68 -53.5 43.88 C-52.23 42.62 -50.96 41.35 -49.69 40.09 C-46.35 36.76 -42.99 33.46 -39.62 30.15 C-36.88 27.45 -34.14 24.73 -31.41 22.02 C-28.15 18.78 -24.89 15.55 -21.63 12.32 C-21 11.7 -20.38 11.08 -19.74 10.45 C-17.98 8.71 -16.21 6.97 -14.44 5.23 C-13.92 4.72 -13.4 4.2 -12.86 3.66 C-8.25 -0.84 -6.43 -1.52 0 0 Z " fill="#000000" transform="translate(455,86)"/>
<path d="M0 0 C0.75 0.61 0.75 0.61 1.51 1.23 C4.6 3.99 5.88 5.44 6.77 9.6 C6.81 10.94 6.81 12.29 6.79 13.64 C6.8 14.38 6.82 15.12 6.83 15.88 C6.86 18.32 6.85 20.75 6.83 23.18 C6.84 24.88 6.85 26.59 6.86 28.29 C6.87 31.85 6.86 35.41 6.84 38.97 C6.81 43.52 6.84 48.07 6.89 52.62 C6.92 56.13 6.91 59.64 6.9 63.15 C6.9 64.83 6.9 66.51 6.92 68.18 C7.07 82.91 7.07 82.91 2.66 87.44 C0.83 88.85 0.83 88.85 -1 90 C-1.57 90.4 -2.14 90.79 -2.73 91.2 C-9.24 95.5 -16.39 99.17 -24 101 C-24.73 101.18 -25.46 101.36 -26.21 101.55 C-43.72 104.37 -60.05 100.25 -74.57 90.22 C-85.87 80.9 -93.63 67.24 -95.81 52.75 C-95.87 51.51 -95.94 50.28 -96 49 C-96.05 48.27 -96.1 47.54 -96.15 46.79 C-96.79 31.14 -91.16 16.15 -80.75 4.56 C-59.17 -18.22 -23.96 -19.78 0 0 Z " fill="#000000" transform="translate(208,212)"/>
<path d="M0 0 C3.9 2.06 6.74 4.19 9 8 C9.83 10.75 10.13 13.24 10.16 16.11 C10.17 16.9 10.18 17.7 10.19 18.52 C10.19 19.38 10.2 20.23 10.2 21.11 C10.21 22 10.21 22.89 10.22 23.8 C10.23 25.68 10.24 27.56 10.24 29.43 C10.25 32.29 10.28 35.15 10.31 38.01 C10.32 39.83 10.32 41.66 10.33 43.49 C10.34 44.34 10.35 45.18 10.37 46.06 C10.35 51.46 9.57 55.21 7 60 C2.67 64.01 -0.02 65.3 -5.97 65.22 C-10.73 64.71 -13.97 61.47 -17 58 C-17.92 55.23 -18.14 53.5 -18.18 50.64 C-18.19 49.76 -18.2 48.88 -18.22 47.98 C-18.22 47.03 -18.23 46.08 -18.24 45.11 C-18.25 44.13 -18.25 43.15 -18.26 42.15 C-18.28 40.07 -18.29 38 -18.3 35.93 C-18.31 32.78 -18.36 29.62 -18.4 26.46 C-18.41 24.45 -18.42 22.44 -18.43 20.42 C-18.44 19.48 -18.46 18.54 -18.48 17.58 C-18.46 11.52 -17.57 7.94 -14 3 C-9.6 -0.1 -5.26 -0.95 0 0 Z " fill="#000000" transform="translate(286,199)"/>
<path d="M0 0 C4.53 2.32 6.26 4.66 8.03 9.32 C8.46 12.73 8.47 16.1 8.46 19.54 C8.47 20.51 8.47 21.49 8.48 22.49 C8.48 24.55 8.48 26.61 8.47 28.67 C8.46 31.81 8.49 34.95 8.53 38.09 C8.53 40.09 8.53 42.09 8.52 44.1 C8.53 45.03 8.55 45.97 8.56 46.93 C8.48 53.81 7.05 57.07 2.34 62.13 C-1.31 64 -4.9 64.43 -8.97 64.32 C-13.7 62.71 -16.24 60.47 -18.97 56.32 C-19.83 53.57 -20.11 51.08 -20.13 48.21 C-20.14 47.41 -20.15 46.61 -20.16 45.79 C-20.17 44.94 -20.17 44.08 -20.18 43.2 C-20.18 42.32 -20.19 41.43 -20.19 40.51 C-20.2 38.64 -20.21 36.76 -20.21 34.88 C-20.22 32.02 -20.25 29.17 -20.29 26.31 C-20.29 24.48 -20.3 22.66 -20.3 20.83 C-20.31 19.98 -20.33 19.13 -20.34 18.26 C-20.31 11.8 -19.24 7.01 -14.97 1.94 C-10.74 -1.5 -5.05 -1.75 0 0 Z " fill="#000000" transform="translate(248.97265625,207.68359375)"/>
<path d="M0 0 C3.23 3.92 3.18 6 3.16 11.04 C3.16 12.34 3.15 13.64 3.15 14.98 C3.14 16.36 3.13 17.74 3.13 19.13 C3.12 20.51 3.12 21.9 3.11 23.29 C3.1 26.69 3.08 30.1 3.06 33.5 C2.48 33.36 1.89 33.22 1.29 33.07 C-3.03 32.06 -7.1 31.22 -11.56 31.25 C-12.42 31.24 -13.28 31.24 -14.16 31.23 C-17.58 31.56 -20.67 32.48 -23.94 33.5 C-24.02 28.94 -24.08 24.38 -24.12 19.81 C-24.15 18.52 -24.18 17.23 -24.2 15.89 C-24.21 14.65 -24.22 13.4 -24.23 12.11 C-24.25 10.97 -24.26 9.82 -24.28 8.64 C-23.77 3.96 -21.93 1.44 -18.56 -1.75 C-12.22 -5.98 -5.65 -4.81 0 0 Z " fill="#000000" transform="translate(330.9375,192.5)"/>
<path d="M0 0 C3.9 1.35 6.49 3.17 8.68 6.74 C10.11 10.28 10.35 12.7 10.29 16.49 C10.28 17.69 10.27 18.89 10.26 20.13 C10.24 21.36 10.21 22.6 10.19 23.88 C10.17 25.77 10.17 25.77 10.15 27.7 C10.11 30.8 10.06 33.9 10 37 C3.36 35.76 -3.13 34.23 -9.62 32.38 C-10.44 32.15 -11.25 31.92 -12.09 31.68 C-14.06 31.12 -16.03 30.56 -18 30 C-18.05 27.31 -18.09 24.63 -18.12 21.94 C-18.14 21.19 -18.16 20.43 -18.18 19.66 C-18.22 14.25 -18.17 8.63 -14.56 4.26 C-9.54 0.61 -6.27 -0.8 0 0 Z " fill="#000000" transform="translate(363,199)"/>
</svg>
